<svg width="24" height="24" viewBox="0 0 24 24" fill="none" xmlns="http://www.w3.org/2000/svg">
<rect width="24" height="24" rx="12" fill="black"/>
<path d="M19.5695 5.03692L18.9105 5.6959C20.483 7.41546 21.3549 9.66123 21.3549 11.9913C21.3549 14.3215 20.483 16.5672 18.9105 18.2868L19.5695 18.9458C21.3182 17.049 22.2891 14.5635 22.2891 11.9837C22.2891 9.40376 21.3182 6.91835 19.5695 5.02155V5.03692Z" fill="#5A5564"/>
<path d="M5.7111 5.09364C7.43066 3.52121 9.67642 2.64922 12.0065 2.64922C14.3367 2.64922 16.5824 3.52121 18.302 5.09364L18.961 4.43466C17.0642 2.68595 14.5787 1.71509 11.9988 1.71509C9.41896 1.71509 6.93354 2.68595 5.03674 4.43466L5.7111 5.09364Z" fill="#5A5564"/>
<path d="M5.09389 18.2933C3.52332 16.5741 2.65247 14.3297 2.65247 12.0011C2.65247 9.67254 3.52332 7.42815 5.09389 5.70897L4.43491 5.04999C2.6862 6.94679 1.71533 9.4322 1.71533 12.0121C1.71533 14.592 2.6862 17.0774 4.43491 18.9742L5.09389 18.2933Z" fill="#5A5564"/>
<path d="M18.2932 18.9019C16.5736 20.4743 14.3279 21.3463 11.9978 21.3463C9.66764 21.3463 7.42188 20.4743 5.70231 18.9019L5.04333 19.5609C6.94014 21.3096 9.42555 22.2805 12.0054 22.2805C14.5853 22.2805 17.0707 21.3096 18.9675 19.5609L18.2932 18.9019Z" fill="#5A5564"/>
<path d="M16.1604 9.80125C16.0286 8.42618 14.8424 7.96489 13.3422 7.82431V5.93085H12.1824V7.78917C11.877 7.78917 11.5651 7.78917 11.2554 7.78917V5.93085H10.1044V7.83749H7.75183V9.07857C7.75183 9.07857 8.6085 9.06319 8.59532 9.07857C8.74979 9.06157 8.90482 9.10521 9.02774 9.20027C9.15067 9.29533 9.2319 9.4344 9.2543 9.58818V14.8073C9.251 14.8615 9.23686 14.9145 9.21271 14.9632C9.18857 15.0119 9.15491 15.0552 9.11372 15.0906C9.07331 15.1268 9.02601 15.1543 8.97467 15.1717C8.92334 15.1891 8.86902 15.1959 8.81498 15.1917C8.83036 15.2049 7.97149 15.1917 7.97149 15.1917L7.75183 16.5777H10.0824V18.5151H11.2422V16.6063H12.1692V18.5064H13.3312V16.5909C15.2905 16.4723 16.6568 15.9891 16.8282 14.1549C16.9665 12.6788 16.2724 12.0198 15.1631 11.754C15.8375 11.4223 16.2548 10.8073 16.1604 9.80125ZM14.5349 13.9265C14.5349 15.3674 12.0659 15.2027 11.2796 15.2027V12.6458C12.0659 12.648 14.5349 12.4218 14.5349 13.9265ZM13.9968 10.324C13.9968 11.642 11.9363 11.4816 11.2818 11.4816V9.15764C11.9363 9.15764 13.9968 8.95116 13.9968 10.324Z" fill="#F09242"/>
<path d="M11.9978 24C9.62462 23.9996 7.30484 23.2955 5.33179 21.9767C3.35874 20.658 1.82101 18.7838 0.913031 16.5912C0.00505138 14.3986 -0.232403 11.9859 0.230689 9.65838C0.693782 7.33081 1.83663 5.19282 3.51472 3.51472C5.19282 1.83663 7.33081 0.693782 9.65838 0.230689C11.9859 -0.232403 14.3986 0.00505138 16.5912 0.913031C18.7838 1.82101 20.658 3.35874 21.9767 5.33179C23.2955 7.30484 23.9996 9.62462 24 11.9978C24.0003 13.574 23.69 15.1349 23.087 16.5912C22.4839 18.0475 21.5998 19.3707 20.4853 20.4853C19.3707 21.5998 18.0475 22.4839 16.5912 23.087C15.1349 23.69 13.574 24.0003 11.9978 24V24ZM11.9978 0.935755C9.81137 0.937492 7.67452 1.58738 5.85735 2.80327C4.04018 4.01916 2.62426 5.74648 1.78855 7.7669C0.952839 9.78732 0.734857 12.0101 1.16216 14.1544C1.58945 16.2987 2.64285 18.2682 4.1892 19.8139C5.73555 21.3596 7.70544 22.4123 9.84989 22.8387C11.9943 23.2651 14.2171 23.0463 16.2372 22.2098C18.2572 21.3733 19.984 19.9567 21.1992 18.139C22.4143 16.3213 23.0634 14.1842 23.0643 11.9978C23.0648 10.5446 22.7789 9.1055 22.223 7.76284C21.667 6.42019 20.8518 5.20029 19.824 4.17291C18.7962 3.14553 17.576 2.33082 16.2331 1.77537C14.8902 1.21991 13.451 0.9346 11.9978 0.935755V0.935755Z" fill="#282138"/>
</svg>
